<svg 
 xmlns="http://www.w3.org/2000/svg"
 xmlns:xlink="http://www.w3.org/1999/xlink"
 width="25px" height="25px">
<path fill-rule="evenodd"  fill="rgb(255, 255, 255)"
 d="M24.207,24.207 C24.012,24.402 23.756,24.500 23.500,24.500 C23.244,24.500 22.988,24.402 22.793,24.207 L15.111,16.525 C13.571,17.758 11.622,18.500 9.500,18.500 C4.538,18.500 0.500,14.463 0.500,9.501 C0.500,4.538 4.538,0.500 9.500,0.500 C14.462,0.500 18.500,4.538 18.500,9.501 C18.500,11.622 17.758,13.571 16.525,15.111 L24.207,22.793 C24.598,23.183 24.598,23.817 24.207,24.207 ZM9.500,2.500 C5.640,2.500 2.500,5.640 2.500,9.501 C2.500,13.360 5.640,16.500 9.500,16.500 C13.360,16.500 16.500,13.360 16.500,9.501 C16.500,5.640 13.360,2.500 9.500,2.500 Z"/>
</svg>
